<svg width="348" height="348" viewBox="0 0 348 348" fill="none" xmlns="http://www.w3.org/2000/svg">
<path d="M301.749 188.193C301.749 197.056 277.142 203.042 275.259 211.334C273.314 219.921 292.837 235.948 289.114 243.676C285.324 251.533 260.569 246.24 255.177 252.987C249.786 259.734 260.403 282.722 253.626 288.138C246.848 293.554 226.865 278.061 218.984 281.851C211.255 285.58 210.9 310.9 202.331 312.844C194.063 314.745 182.796 292.113 173.914 292.113C165.033 292.113 153.772 314.745 145.473 312.844C136.886 310.9 136.549 285.58 128.821 281.851C120.964 278.061 100.95 293.505 94.2033 288.132C87.4565 282.759 98.0675 259.758 92.6516 252.981C87.2357 246.203 62.5054 251.527 58.721 243.67C54.9918 235.942 74.5209 219.897 72.5766 211.334C70.6936 203.042 46.0859 197.056 46.0859 188.193C46.0859 179.33 70.6936 173.343 72.5766 165.051C74.5209 156.464 54.9979 140.437 58.721 132.709C62.5176 124.852 87.2725 130.127 92.6332 123.38C97.9939 116.633 87.4074 93.6445 94.1849 88.2286C100.962 82.8127 120.97 98.3182 128.821 94.5523C136.549 90.8231 136.905 65.504 145.473 63.5596C153.766 61.6766 165.052 84.2909 173.914 84.2909C182.777 84.2909 194.063 61.6766 202.356 63.5596C210.943 65.504 211.28 90.8231 219.008 94.5523C226.865 98.3428 246.879 82.8986 253.626 88.2715C260.372 93.6445 249.762 116.633 255.171 123.38C260.581 130.127 285.317 124.833 289.102 132.69C292.831 140.419 273.302 156.464 275.246 165.026C277.141 173.343 301.749 179.324 301.749 188.193Z" fill="#FFC7A6"/>
<path d="M214.456 43.3672C218.749 47.7833 218.896 51.169 218.099 54.2849L216.21 63.8102C214.86 70.1461 213.486 76.4821 211.916 82.7689C208.733 95.3365 205.347 107.873 202.336 120.49C200.815 126.795 199.371 133.111 198.005 139.436C196.533 145.748 195.264 152.084 193.878 158.407C191.234 171.073 188.762 183.727 186.327 196.435L186.272 196.705C185.67 199.937 183.89 202.83 181.278 204.824C178.665 206.819 175.405 207.773 172.129 207.502C168.854 207.231 165.795 205.754 163.545 203.357C161.296 200.96 160.016 197.814 159.953 194.528C159.615 180.938 159.984 167.34 161.057 153.789C162.116 140.295 163.637 126.877 165.621 113.535C167.559 100.194 169.589 86.8661 172.318 73.6668C173.711 67.0855 175.385 60.5656 177.225 54.0825C178.176 50.8501 179.206 47.63 180.224 44.4038C181.089 41.1223 182.929 38.1353 189.001 36.1848C193.211 34.8317 197.715 34.678 202.007 35.7407C206.299 36.8035 210.21 39.0408 213.302 42.2018L214.456 43.3672Z" fill="black"/>
<path d="M188.996 246.224C189.623 235.069 181.09 225.518 169.936 224.891C158.781 224.263 149.231 232.797 148.603 243.951C147.976 255.105 156.509 264.656 167.663 265.284C178.817 265.911 188.368 257.378 188.996 246.224Z" fill="black"/>
</svg>
