<svg width="42" height="26" viewBox="0 0 42 26" fill="none" xmlns="http://www.w3.org/2000/svg">
<rect width="42" height="26" fill="white"/>
<path d="M25.3267 20.6644H16.6741V5.11426H25.3269L25.3267 20.6644Z" fill="#FF5F00"/>
<path d="M17.2225 12.8895C17.2225 9.7352 18.6995 6.9253 20.9993 5.11447C19.2585 3.74176 17.1052 2.99674 14.8882 3.00001C9.42699 3.00001 5 7.42764 5 12.8895C5 18.3514 9.42699 22.7791 14.8882 22.7791C17.1053 22.7824 19.2585 22.0374 20.9995 20.6646C18.6998 18.8541 17.2225 16.0441 17.2225 12.8895Z" fill="#EB001B"/>
<path d="M37 12.8895C37 18.3514 32.573 22.7791 27.1117 22.7791C24.8944 22.7823 22.7409 22.0373 20.9996 20.6646C23.3001 18.8537 24.7771 16.0441 24.7771 12.8895C24.7771 9.73504 23.3001 6.9253 20.9996 5.11447C22.7409 3.7418 24.8943 2.99679 27.1116 3.00001C32.5728 3.00001 36.9998 7.42764 36.9998 12.8895" fill="#F79E1B"/>
</svg>
