<svg width="40" height="12" viewBox="0 0 40 12" fill="none" xmlns="http://www.w3.org/2000/svg">
<path fill-rule="evenodd" clip-rule="evenodd" d="M24.0851 0.0268555H26.5554L32.5778 8.13278C32.5778 8.13278 32.5778 1.95609 32.5778 1.26308C32.5778 0.567841 31.6255 0.0536804 31.6255 0.0536804H34.7127C34.7127 0.0536804 33.9012 0.516424 33.9012 1.24967C33.9012 1.98292 33.9012 11.6716 33.9012 11.6716C33.9012 11.6716 32.4727 11.0926 31.393 9.6261C30.3133 8.15961 26.2603 2.87041 26.2603 2.87041C26.2603 2.87041 26.2603 9.50986 26.2603 10.0106C26.2603 10.5114 27.1098 11.1306 27.1098 11.1306H24.0605C24.0605 11.1306 24.91 10.6679 24.91 10.0509C24.91 9.43385 24.91 2.29142 24.91 1.36592C24.91 0.438186 24.0851 0.0268555 24.0851 0.0268555Z" fill="#006675"/>
<path fill-rule="evenodd" clip-rule="evenodd" d="M37.3376 8.13261V1.26067C37.3376 0.56543 36.3853 0.0512695 36.3853 0.0512695H40.0001C40.0001 0.0512695 39.1886 0.514014 39.1886 1.24726V9.85395C39.1886 10.5112 39.9598 11.0119 39.9598 11.0119L36.4858 11.05C36.4858 11.05 37.3353 10.5224 37.3353 9.98138C37.3376 9.44486 37.3376 8.13261 37.3376 8.13261Z" fill="#006675"/>
<path fill-rule="evenodd" clip-rule="evenodd" d="M13.9095 0.0133057H19.2367C20.4327 0.0133057 21.8098 1.03046 21.8098 2.41871C21.8098 4.30995 20.3567 4.56704 20.3567 4.56704C20.3567 4.56704 22.9052 5.18403 22.9052 7.61626C22.9052 10.0485 20.1264 10.974 19.1987 10.974H13.8335C13.8335 10.974 14.759 10.4732 14.759 9.66175V1.32332C14.759 0.476066 13.9095 0.0133057 13.9095 0.0133057ZM16.5988 5.50594V9.82941H18.6823C19.4938 9.82941 20.9983 9.13417 20.9983 7.78392C20.9983 6.43368 19.7643 5.50594 18.6063 5.50594H16.5988ZM16.5988 1.10647V4.4262H18.1816C18.9148 4.4262 19.9565 4.03946 19.9565 2.68921C19.9565 1.33897 18.4118 1.10647 17.8731 1.10647H16.5988Z" fill="#006675"/>
<path d="M11.0389 0H0V11.0389H11.0389V0Z" fill="#E25201"/>
<path fill-rule="evenodd" clip-rule="evenodd" d="M3.55222 0H4.9427C4.9427 0 4.71021 0.695252 4.9427 2.16174C5.17519 3.62823 6.33319 4.71021 6.33319 4.71021C6.33319 4.71021 5.94644 3.78472 7.49118 2.16174C9.03591 0.541002 11.0412 1.54474 11.0412 1.54474V3.47398C11.0412 3.47398 9.65067 1.69899 8.18418 2.54848C7.10443 3.17442 6.48519 4.09321 7.87568 6.33095C9.26616 8.56869 11.0412 7.72144 11.0412 7.72144V8.26243C11.0412 8.26243 10.2699 8.95767 8.72518 8.72518C7.76391 8.57987 6.99042 7.96288 6.1454 6.96808L4.79292 8.05005C5.64465 9.07168 6.32871 9.82057 6.56344 9.96141C7.33469 10.4242 7.87568 10.4242 7.87568 10.4242L7.10444 11.0412H5.32945C5.32945 11.0412 5.4837 10.6544 5.1752 10.3459C4.8667 10.0374 3.88755 8.74977 3.88755 8.74977L1.08199 11.0389H0.0469505L3.39797 8.26019L0 4.09098V2.00749C0 2.00749 2.47024 5.19085 4.39053 7.52919L5.71842 6.44496C5.34957 5.97551 4.90247 5.35181 4.47772 4.78622C2.85698 2.62449 3.55222 0 3.55222 0Z" fill="white"/>
</svg>
