<svg width="48" height="14" viewBox="0 0 48 14" fill="none" xmlns="http://www.w3.org/2000/svg">
<g clip-path="url(#clip0)">
<path d="M0.0559784 9.60531C0.0559784 8.91104 0.0438464 8.32981 0.00634766 7.80979H1.31935L1.38167 8.70204H1.41806C1.7153 8.2311 2.26013 7.67303 3.2759 7.67303C4.06889 7.67303 4.68762 8.1197 4.94791 8.78806H4.97327C5.18393 8.45388 5.43098 8.20573 5.71553 8.03313C6.05026 7.79711 6.43517 7.67303 6.92982 7.67303C7.93347 7.67303 8.94814 8.35407 8.94814 10.2875V13.841H7.46197V10.5091C7.46197 9.5066 7.11511 8.91104 6.38444 8.91104C5.86442 8.91104 5.48006 9.28382 5.31958 9.71725C5.27493 9.88267 5.24994 10.0528 5.24514 10.224V13.8415H3.75898V10.3476C3.75898 9.50715 3.4248 8.91159 2.71839 8.91159C2.14984 8.91159 1.76603 9.35826 1.62817 9.77847C1.56696 9.92736 1.54159 10.1016 1.54159 10.2737V13.8415H0.0559784V9.60531V9.60531ZM14.7389 12.3929C14.7389 12.9372 14.7637 13.4693 14.825 13.8415H13.4502L13.3515 13.1732H13.314C12.9423 13.6441 12.3103 13.9772 11.5317 13.9772C10.3174 13.9772 9.63635 13.0987 9.63635 12.1817C9.63635 10.6569 10.9852 9.89041 13.2158 9.90254V9.80383C13.2158 9.40679 13.0542 8.75056 11.9888 8.75056C11.3938 8.75056 10.7751 8.93695 10.3665 9.19613L10.0692 8.20518C10.5154 7.93221 11.2957 7.67248 12.2486 7.67248C14.1814 7.67248 14.7395 8.90001 14.7395 10.2114L14.7389 12.3929ZM13.2522 10.8946C12.1741 10.8692 11.1468 11.1047 11.1468 12.0212C11.1468 12.6157 11.5317 12.8886 12.0142 12.8886C12.6203 12.8886 13.0669 12.491 13.2031 12.0582C13.2365 11.9499 13.2532 11.8372 13.2528 11.724V10.8946H13.2522V10.8946ZM15.7911 9.60531C15.7911 8.91104 15.7784 8.32981 15.7426 7.80979H17.0787L17.1526 8.71527H17.1901C17.4499 8.24378 18.1066 7.67303 19.1097 7.67303C20.163 7.67303 21.2521 8.35407 21.2521 10.2626V13.841H19.729V10.4358C19.729 9.56891 19.4064 8.91048 18.577 8.91048C17.971 8.91048 17.5486 9.34447 17.3881 9.80328C17.3385 9.93894 17.3263 10.1253 17.3263 10.2974V13.8404H15.7905L15.7911 9.60531V9.60531ZM27.8574 5.38672V12.1447C27.8574 12.764 27.8828 13.434 27.907 13.8415H26.5455L26.4832 12.8886H26.4578C26.0994 13.557 25.3676 13.9778 24.4891 13.9778C23.0521 13.9778 21.9133 12.7519 21.9133 10.8952C21.9001 8.87574 23.1629 7.67358 24.6132 7.67358C25.4426 7.67358 26.0371 8.02044 26.3095 8.46822H26.3354V5.38727H27.858V5.38672H27.8574ZM26.3349 10.3238C26.3349 10.2009 26.3227 10.052 26.2974 9.92736C26.1612 9.334 25.6792 8.85038 24.9849 8.85038C24.0066 8.85038 23.4607 9.71781 23.4607 10.8444C23.4607 11.9457 24.0061 12.7513 24.9728 12.7513C25.5909 12.7513 26.1363 12.3295 26.2847 11.6732C26.3222 11.5376 26.3354 11.3881 26.3354 11.2277V10.3238H26.3349ZM28.9349 13.8415V7.80979H30.4718V13.8415H28.9349ZM31.5483 9.75475C31.5483 8.93751 31.5367 8.35462 31.4998 7.81034H32.8249L32.8734 8.96122H32.9236C33.2208 8.10702 33.9261 7.81034 34.5719 7.81034C34.7202 7.81034 34.8063 7.78497 34.9298 7.81034V9.14871C34.7836 9.11637 34.6344 9.09973 34.4848 9.09908C33.7524 9.09908 33.2572 9.57002 33.1216 10.25C33.0916 10.4056 33.0752 10.5635 33.0725 10.722V13.8421H31.5483V9.75475V9.75475ZM35.6367 13.8415V7.80979H37.1714V13.8415H35.6367Z" fill="#0D2B5B"/>
<path d="M46.7315 1.43045C45.971 0.563015 45.1626 0.955647 44.5201 1.27494C44.2499 1.40839 42.2994 2.51404 42.2994 2.51404C41.2307 2.95465 40.3986 2.47379 40.0721 2.06902C40.0409 2.03064 40.0127 1.98989 39.9878 1.94715L39.9117 1.81536C39.783 1.5929 39.6401 1.37904 39.4837 1.17512C39.3888 1.05152 39.2861 0.934188 39.176 0.823851C38.4448 0.0854592 37.2763 -0.431249 35.323 0.507318C34.3982 1.04333 31.3857 2.7644 31.3857 2.7644C30.2535 3.23038 29.3877 2.66294 29.1065 2.24659C29.0938 2.231 29.0828 2.21419 29.0734 2.19641L29.0365 2.13354L28.8457 1.82142C28.7596 1.6847 28.6672 1.55203 28.5688 1.42383C28.473 1.30102 28.3701 1.18391 28.2606 1.07311C27.5343 0.339126 26.3719 -0.176479 24.4357 0.744442C23.265 1.4128 20.5419 2.96954 20.5419 2.96954L20.5408 2.97065L18.5479 4.10939L19.5791 5.37552C20.0131 5.78911 20.8287 6.46739 22.0904 5.89554C22.0904 5.89554 25.5728 3.87888 25.5866 3.87282C28.5639 2.23887 30.0329 3.80003 30.6826 4.84061C30.7052 4.87315 30.7234 4.90844 30.7438 4.93987L30.7449 4.94153C30.7531 4.95421 30.7581 4.96579 30.7653 4.97792L30.8386 5.09814C31.1552 5.5779 31.6542 5.88782 32.2492 5.87348C32.5773 5.86686 32.8001 5.75988 33.1244 5.57955L36.4938 3.62522L36.5009 3.62191C39.5157 1.96811 41.0096 3.63128 41.6476 4.67187C41.6973 4.76175 41.7535 4.84778 41.8114 4.92774C42.1274 5.35622 42.563 5.63691 43.1167 5.62312C43.4823 5.61595 43.892 5.39647 43.9533 5.35622L47.9926 3.02469C47.9937 3.02579 47.5813 2.4021 46.7315 1.43045V1.43045Z" fill="#FDD213"/>
</g>
<defs>
<clipPath id="clip0">
<rect width="48" height="13.9776" fill="white"/>
</clipPath>
</defs>
</svg>
