<svg width="48" height="12" viewBox="0 0 48 12" fill="none" xmlns="http://www.w3.org/2000/svg">
<g clip-path="url(#clip0)">
<path fill-rule="evenodd" clip-rule="evenodd" d="M2.06749 5.66485C2.15154 5.80773 2.81552 6.50533 2.90797 6.6146L3.84931 7.56434C4.02489 7.73114 4.16235 7.9339 4.25229 8.15875C4.34223 8.3836 4.38252 8.62522 4.37041 8.86709C4.34625 9.09618 4.27008 9.31672 4.14773 9.51191C4.02538 9.70709 3.86007 9.87175 3.66441 9.99334C3.4496 10.1448 3.18483 10.208 2.92478 10.1698H2.00866C1.88726 10.1698 1.76729 10.1436 1.65703 10.0928C1.54676 10.042 1.4488 9.96793 1.36989 9.87567C1.15977 9.64874 1.15136 9.5731 1.15136 9.17807C1.15136 8.98476 1.15136 2.06758 1.15136 1.85746C1.17495 1.74477 1.22144 1.63814 1.28795 1.54416C1.35446 1.45018 1.43956 1.37087 1.53799 1.31115C1.75249 1.17273 2.00618 1.10784 2.2608 1.12624C2.80365 1.03889 3.3602 1.12724 3.84931 1.37838C4.048 1.50851 4.21017 1.68719 4.32048 1.89752C4.43079 2.10785 4.48559 2.34285 4.47968 2.58028C4.45066 3.05821 4.24377 3.50797 3.89974 3.841C3.51312 4.31167 2.16835 5.38749 2.06749 5.68166V5.66485ZM5.33697 1.11783C5.72037 1.09245 6.10503 1.09245 6.48843 1.11783C6.78737 1.16247 7.06374 1.30297 7.27595 1.51821C7.48815 1.73345 7.62472 2.01178 7.66511 2.31132C7.68661 2.47431 7.67218 2.64003 7.62281 2.79685C7.57344 2.95366 7.49034 3.09777 7.37934 3.21904C6.91992 3.7555 6.41974 4.25568 5.88328 4.7151C5.71519 4.85799 5.0428 5.55559 5.0428 5.64804L7.77437 8.45525C8.08535 8.77464 9.34608 9.97653 9.41331 10.1362H5.41261C5.41261 10.0522 5.53869 9.94291 5.58912 9.85886C5.78443 9.55901 5.88678 9.20812 5.88328 8.85028C5.88935 8.50385 5.81688 8.16055 5.67132 7.84614C5.52575 7.53172 5.31087 7.25435 5.0428 7.03484L3.72324 5.64804C3.84636 5.4793 3.98418 5.3218 4.13508 5.17737C4.42084 4.8832 4.83268 4.57222 5.05961 4.33689C5.20916 4.18445 5.34422 4.01844 5.46304 3.841C5.75516 3.42836 5.88666 2.92329 5.83286 2.42058C5.75721 1.52127 5.3958 1.39519 5.33697 1.13464V1.11783ZM8.3459 1.11783C9.51417 1.11783 10.2454 1.00017 10.2202 2.6307V4.21081C10.2202 5.89178 10.2202 7.57275 10.2202 9.18647L6.72377 5.63123C6.84549 5.45377 6.98642 5.29029 7.14401 5.14375L7.56425 4.7067C7.6567 4.62265 7.71554 4.58063 7.79959 4.49658C8.04373 4.28115 8.26871 4.04493 8.47197 3.79057C8.63896 3.59707 8.76342 3.37062 8.83726 3.12592C8.9111 2.88122 8.93269 2.62373 8.90062 2.37015C8.90062 1.58851 8.42995 1.39519 8.32909 1.11783H8.3459ZM1.9078 -8.09148e-06C1.55001 0.0148663 1.20338 0.128831 0.90657 0.329178C0.60976 0.529525 0.374433 0.808379 0.226831 1.13464C0.0536906 1.51058 -0.0242458 1.92335 -9.94571e-05 2.33654V6.58098C-9.94571e-05 7.51391 -9.94571e-05 8.48047 -9.94571e-05 9.405C0.0245596 9.7613 0.143375 10.1047 0.344204 10.4C0.545033 10.6953 0.820674 10.9321 1.14296 11.086C1.51718 11.2632 1.93327 11.333 2.34485 11.2877H9.40491C9.7627 11.2728 10.1093 11.1588 10.4061 10.9585C10.7029 10.7581 10.9383 10.4793 11.0859 10.153C11.266 9.77963 11.3387 9.3635 11.296 8.95114V1.89108C11.2887 1.51025 11.1591 1.14187 10.9262 0.840475C10.718 0.570537 10.4505 0.352003 10.1445 0.201708C9.77169 0.0296447 9.35973 -0.0399815 8.95105 -8.09148e-06H3.303C2.84914 -8.09148e-06 2.34485 -8.09148e-06 1.9078 -8.09148e-06Z" fill="#2356A7"/>
<path fill-rule="evenodd" clip-rule="evenodd" d="M23.71 8.47209H25.0884V4.70673C25.1472 4.76556 26.0549 6.51376 26.0549 6.58941L27.0215 8.4805H28.8789V2.84085C28.7276 2.84085 27.6182 2.84085 27.5174 2.84085V6.53898C27.4417 6.49695 26.4752 4.51341 26.3407 4.20244L25.6431 2.79883H23.7184V8.43847L23.71 8.47209Z" fill="#2356A7"/>
<path fill-rule="evenodd" clip-rule="evenodd" d="M37.9224 7.40461V6.06824C38.274 6.03974 38.6279 6.06238 38.973 6.13548C39.2672 6.21953 39.5109 6.37082 39.4941 6.73222C39.4941 6.87966 39.4417 7.02229 39.3462 7.13467C39.2508 7.24705 39.1185 7.32187 38.973 7.34578C38.627 7.41205 38.2737 7.43184 37.9224 7.40461V7.40461ZM37.9224 5.06807V3.9082C38.2409 3.87401 38.5621 3.87401 38.8806 3.9082C39.0135 3.92297 39.136 3.98751 39.2233 4.08886C39.3106 4.1902 39.3563 4.32084 39.3513 4.45451C39.3513 5.05126 38.3343 5.08488 37.9224 5.03445V5.06807ZM36.418 8.47202C36.6281 8.47202 38.1914 8.47202 38.5444 8.47202C39.6959 8.47202 41.1667 8.20307 40.9902 6.6902C40.9665 6.48937 40.8955 6.29703 40.783 6.12899C40.6705 5.96096 40.5197 5.82203 40.343 5.72364C40.2083 5.66921 40.067 5.63248 39.9228 5.61438C39.9228 5.49671 39.9732 5.61438 40.2254 5.41266C40.4179 5.28751 40.5761 5.11625 40.6856 4.91443C40.7951 4.71261 40.8525 4.48662 40.8525 4.257C40.8525 4.02738 40.7951 3.80139 40.6856 3.59957C40.5761 3.39775 40.4179 3.22649 40.2254 3.10134C39.6718 2.84503 39.0566 2.75173 38.4519 2.83238C38.1914 2.83238 36.5524 2.83238 36.4348 2.83238V8.45521L36.418 8.47202Z" fill="#2356A7"/>
<path fill-rule="evenodd" clip-rule="evenodd" d="M14.4815 6.1018C14.8223 6.06405 15.1662 6.06405 15.5069 6.1018C15.6481 6.1125 15.7798 6.17679 15.8752 6.28148C15.9705 6.38618 16.0222 6.52336 16.0196 6.66492C16.0196 7.00112 15.9692 7.13559 15.6246 7.26167C15.2532 7.36648 14.866 7.40349 14.4815 7.37093V6.1018ZM14.4815 3.90814C14.7942 3.87021 15.1102 3.87021 15.4229 3.90814C15.7338 3.97538 15.8767 4.09304 15.8683 4.44605C15.8599 4.79905 15.6666 4.8831 15.3892 4.95874C15.0935 5.03709 14.7867 5.0655 14.4815 5.04279V3.90814ZM12.9771 8.48037C14.2378 8.42994 16.8769 8.78294 17.4148 7.58105C17.5245 7.27143 17.5619 6.9408 17.5241 6.61449C17.4893 6.36234 17.3725 6.12863 17.1918 5.9494C17.011 5.77017 16.7763 5.65538 16.5239 5.62272C16.423 5.62272 16.4482 5.62272 16.423 5.5723C16.3978 5.52187 16.423 5.5723 16.5071 5.5723H16.5995C16.6614 5.55124 16.7207 5.52303 16.776 5.48825C16.9396 5.39629 17.079 5.26681 17.1827 5.11047C17.2865 4.95412 17.3516 4.77537 17.3728 4.58893C17.3728 3.98378 17.3728 3.53833 16.7592 3.17692C16.2141 2.92205 15.6082 2.82592 15.011 2.89956C14.3386 2.89956 13.6494 2.89956 12.9771 2.89956V8.54761V8.48037Z" fill="#2356A7"/>
<path fill-rule="evenodd" clip-rule="evenodd" d="M42.8643 3.90829C43.4611 3.90829 44.5453 3.84945 44.31 4.74877C44.1839 5.22785 43.4022 5.20263 42.8643 5.19423V3.90829ZM41.3599 8.47211H42.8643V6.25323C43.1535 6.19318 43.4547 6.2474 43.7048 6.40452C44.0182 6.78713 44.2345 7.23984 44.3352 7.72408C44.3772 7.85015 44.4192 7.96782 44.4528 8.09389C44.4865 8.21997 44.5369 8.40487 44.5705 8.48052H46.1002C45.886 7.7106 45.6221 6.95538 45.3101 6.21962C45.142 5.77416 44.9487 5.8498 44.8395 5.65649C45.0935 5.60454 45.3256 5.476 45.5044 5.28816C45.6833 5.10033 45.8002 4.86222 45.8396 4.60589C45.9153 3.84105 45.7472 3.404 45.2513 3.12664C44.6903 2.87466 44.0732 2.77328 43.4611 2.83247C42.7719 2.83247 42.0575 2.83247 41.3767 2.83247V8.46371L41.3599 8.47211Z" fill="#2356A7"/>
<path fill-rule="evenodd" clip-rule="evenodd" d="M29.417 8.47206H30.9299V5.95061C31.1232 6.04306 32.4343 8.22832 32.6865 8.47206C32.7621 8.53089 32.905 8.51408 33.0311 8.51408C33.2916 8.51408 34.4347 8.51408 34.5776 8.51408C34.2822 8.01226 33.9478 7.53451 33.5774 7.08526C33.216 6.61459 32.8462 6.16913 32.5016 5.69006C32.3587 5.48834 32.3671 5.51356 32.5016 5.31184L33.88 3.63087C34.0711 3.40477 34.2506 3.16914 34.4179 2.92487H32.6192C32.4381 3.10777 32.2748 3.3076 32.1318 3.52161C31.93 3.79897 31.7283 4.07633 31.5182 4.36209C31.4342 4.46295 30.9467 5.14374 30.8962 5.20258V2.84082H29.417V8.47206Z" fill="#2356A7"/>
<path fill-rule="evenodd" clip-rule="evenodd" d="M20.4319 4.01751C20.4908 4.01751 20.869 5.46315 20.9194 5.63965C20.9832 5.82421 21.0365 6.01222 21.0791 6.20277H19.6923L20.0453 5.10174C20.1125 4.92524 20.163 4.74874 20.2218 4.55542C20.2806 4.36211 20.289 4.37052 20.3143 4.28647C20.3395 4.20242 20.3647 4.05113 20.4319 4.01751V4.01751ZM17.3726 8.47208C17.7424 8.47208 18.3055 8.47208 18.7005 8.47208C18.877 8.47208 18.877 8.42165 18.9527 8.27876C19.1094 7.95781 19.2361 7.62298 19.3309 7.27859C19.541 7.27859 20.911 7.27859 21.2304 7.27859C21.3817 7.27859 21.4237 7.27859 21.4825 7.37945C21.5861 7.63787 21.6758 7.90159 21.7515 8.1695C21.8691 8.53091 21.9196 8.48048 22.1381 8.48048H23.5333L21.3985 2.84924H19.541C19.3173 3.28554 19.1262 3.73784 18.9695 4.20242C18.6165 5.0429 18.2467 6.15234 17.8937 7.04325C17.6873 7.5012 17.5131 7.97302 17.3726 8.45527V8.47208Z" fill="#2356A7"/>
<path fill-rule="evenodd" clip-rule="evenodd" d="M47.9997 8.48046V2.84082H46.4868V8.48046H47.9997Z" fill="#2356A7"/>
</g>
<defs>
<clipPath id="clip0">
<rect width="48" height="11.2877" fill="white"/>
</clipPath>
</defs>
</svg>
