<svg width="48" height="16" viewBox="0 0 48 16" fill="none" xmlns="http://www.w3.org/2000/svg">
<g clip-path="url(#clip0)">
<path d="M4.94717 12.6628L4.87744 12.9417C4.90565 12.9429 4.93508 12.9496 4.96451 12.9562C5.052 12.976 5.13952 12.9957 5.19519 12.872C5.20017 12.7684 5.20443 12.6653 4.94717 12.6628Z" fill="#005FAF"/>
<path d="M7.21845 12.927L7.17466 13.2337C7.20355 13.2309 7.23415 13.2352 7.26462 13.2395C7.35301 13.2518 7.44029 13.2641 7.48142 13.1022C7.47727 12.9327 7.34817 12.9233 7.21845 12.927Z" fill="#005FAF"/>
<path d="M11.1622 12.9197L10.9358 12.9854L10.9139 12.5765L11.1622 12.9197Z" fill="#005FAF"/>
<path d="M9.02245 12.9197C9.00366 12.8362 8.93393 12.7746 8.75948 12.8321L8.81791 13.146C8.96122 13.1143 9.0349 13.0295 9.02245 12.9197Z" fill="#005FAF"/>
<path d="M8.92023 13.7012L8.86907 13.3798C8.96558 13.3605 9.08689 13.3377 9.1174 13.4821C9.14905 13.6323 9.03988 13.7042 8.92023 13.7012Z" fill="#005FAF"/>
<path fill-rule="evenodd" clip-rule="evenodd" d="M13.6185 1.46782C9.75124 -0.502316 5.13261 -0.447523 1.44784 1.38189C-0.452246 4.72681 -0.512745 9.40687 1.44784 13.552C5.50733 15.6063 9.99722 15.471 13.6471 13.6379C15.3624 10.1186 15.6457 5.88388 13.6185 1.46782ZM7.08707 11.4558L6.85784 11.4584C6.80107 10.8249 6.64967 10.2926 6.32486 9.88516C5.73373 9.14387 4.89763 8.91828 4.15302 8.71737C3.02146 8.41206 2.1012 8.16376 2.57305 6.24926C2.97984 4.62646 7.61984 3.66936 7.08707 11.4558ZM2.57855 8.32057C2.76489 8.69986 3.51339 8.89743 4.25172 9.09232C4.802 9.23757 5.34663 9.38132 5.64867 9.59771C6.77067 10.4014 6.60961 11.4587 6.60961 11.4587H6.34499C6.02111 10.4659 5.33344 10.5791 4.57809 10.7034C4.11852 10.779 3.6339 10.8588 3.19091 10.6961C2.45568 10.4346 1.92187 9.30113 2.57855 8.32057ZM6.29093 13.5259L6.40051 12.6568L6.59768 12.6715L6.50999 13.6282C6.42158 14.0496 5.79323 13.9932 5.71395 13.5916L5.81616 12.5984L6.04986 12.635L5.94764 13.4675C5.96062 13.743 6.23696 13.7265 6.29093 13.5259ZM5.24168 13.7633L5.0169 13.709C5.02222 13.6715 5.03544 13.6262 5.04957 13.5777C5.10548 13.3861 5.1757 13.1453 4.82814 13.1453L4.70693 13.6393L4.45892 13.5928L4.7224 12.407C5.36641 12.4771 5.42276 12.6563 5.43552 12.8487C5.4101 12.9979 5.37035 13.1021 5.24178 13.1277C5.3427 13.2193 5.30904 13.3781 5.27537 13.5371C5.25883 13.6151 5.24229 13.6932 5.24168 13.7633ZM3.81407 12.4351C3.75212 12.5173 3.62811 12.8044 3.61016 13.0332C3.59106 13.2757 3.82403 13.2247 3.88204 13.1964C3.92884 13.1736 3.96361 12.9788 3.96361 12.9788L3.80048 12.9245L3.85485 12.7614L4.222 12.8838L4.04528 13.4956L3.89574 13.4547L3.90933 13.3596C3.72628 13.443 3.39119 13.3804 3.35186 13.1693C3.31253 12.9996 3.43167 12.4852 3.62375 12.2449C3.81044 12.0112 4.26528 12.2396 4.27638 12.3808C4.28738 12.5215 4.23186 12.6799 4.23186 12.6799L4.06063 12.6476C4.06063 12.6476 4.07112 12.5968 4.08606 12.5166C4.10183 12.4318 3.88049 12.3468 3.81407 12.4351ZM7.15276 13.4309L7.10897 13.9568L6.92643 13.9495L6.99212 12.7006C7.44799 12.7101 7.7093 12.7732 7.70058 13.0951C7.67694 13.4776 7.40453 13.4526 7.22573 13.4363C7.19892 13.4338 7.17421 13.4316 7.15276 13.4309ZM7.60718 11.4586H7.30178C7.29579 11.2194 7.3013 10.9362 7.30737 10.6246C7.32872 9.52744 7.35695 8.07676 6.91439 6.94299C6.69795 6.38819 6.31495 5.98683 5.95688 5.61158C5.60266 5.24038 5.27283 4.89474 5.15274 4.4514C4.77044 3.04029 5.4211 1.51348 7.60718 1.3959C9.50239 1.59048 10.0846 3.05357 9.76141 4.4158C9.4705 5.12868 9.17956 5.41483 8.86908 5.72019C8.58637 5.99824 8.28746 6.29222 7.95762 6.93884C7.50537 8.10247 7.55274 9.5548 7.58954 10.6831C7.59873 10.965 7.60727 11.2267 7.60718 11.4586ZM10.9942 13.4601L10.7824 13.5332L10.7166 12.277L10.9649 12.2113L11.5785 13.2483L11.4104 13.3579L11.2059 13.0659L10.9722 13.1535L10.9942 13.4601ZM8.52329 11.4586H8.27901C8.40743 9.68684 9.8741 9.29076 11.0023 8.98608C11.6428 8.81312 12.1742 8.66961 12.2897 8.32057C12.8414 9.27612 12.6431 10.0818 12.067 10.4948C11.4173 10.9609 10.7797 10.8473 10.2079 10.7455C9.51995 10.6229 8.92724 10.5173 8.52329 11.4586ZM9.81848 12.8614L9.92807 13.4384C9.98872 13.5567 10.0321 13.5502 10.1146 13.5379C10.1248 13.5364 10.1356 13.5348 10.1471 13.5333C10.2623 13.4499 10.2453 13.3687 10.2237 13.2652L10.2202 13.2484L10.432 13.2193C10.4872 13.6373 10.2885 13.6799 10.1398 13.7086C9.82118 13.7314 9.75871 13.6693 9.67247 13.2558C9.66794 13.2238 9.66311 13.1917 9.65829 13.1597C9.60972 12.8368 9.56235 12.5219 9.83311 12.4598C10.2579 12.3949 10.2915 12.5527 10.3221 12.6963C10.3267 12.7178 10.3313 12.7391 10.337 12.7592L10.1252 12.7958C10.0914 12.6634 10.0427 12.6109 9.93533 12.6206C9.83747 12.6656 9.79731 12.7383 9.81848 12.8614ZM9.37299 13.4601C9.38316 13.6421 9.32141 13.7628 9.20498 13.8034L8.70832 13.9056L8.51115 12.7006C8.52504 12.6983 8.54632 12.693 8.57303 12.6863C8.74233 12.6436 9.1293 12.5462 9.23414 12.8322C9.29266 13.0299 9.2347 13.1037 9.16586 13.1912L9.16108 13.1973C9.29547 13.2405 9.34082 13.3451 9.37299 13.4601ZM8.09761 7.41298C9.20404 4.29771 11.7358 4.84822 12.2973 6.24937C12.8158 8.14411 11.8598 8.41177 10.6956 8.73774C10.1323 8.89546 9.52022 9.06683 9.00283 9.44278C8.40312 9.96434 8.08755 10.5627 8.08288 11.4698H7.81099L7.80857 11.2076C7.79269 9.51803 7.78127 8.30358 8.09761 7.41298Z" fill="#005FAF"/>
<path d="M37.1911 1.17346L39.8419 2.55618L37.9194 5.95001L37.8742 5.92443L37.8414 5.96464C36.6288 4.97517 35.1624 4.75474 33.9607 5.14403C32.761 5.5327 31.8237 6.52922 31.6622 7.98221C31.7016 8.86644 31.9594 9.48826 32.3464 9.90793C32.7341 10.3283 33.2564 10.5512 33.8338 10.6278C34.991 10.7814 36.3578 10.3452 37.2552 9.75412L37.4125 9.65055L35.4752 13.6552L35.4614 13.6632C35.3715 13.7151 35.1874 13.7749 34.9397 13.8292C34.6899 13.8839 34.37 13.9342 34.0045 13.9648C33.2736 14.0261 32.3575 14.0093 31.4526 13.7914C30.5475 13.5736 29.6512 13.1541 28.9638 12.4081C28.2759 11.6616 27.8013 10.5923 27.733 9.08262L27.7329 9.0798L27.7331 9.07699C27.9613 5.48158 29.8995 3.42646 31.9548 2.36439C32.9816 1.83381 34.0375 1.55096 34.9243 1.44678C35.3678 1.39468 35.7698 1.38716 36.1053 1.41601C36.4171 1.4428 36.6751 1.50126 36.856 1.58704L37.1911 1.17346Z" fill="#005FAF"/>
<path fill-rule="evenodd" clip-rule="evenodd" d="M41.4755 1.2505H47.3356V1.30238L47.3874 1.29989L47.9814 13.6229H43.9627L43.8976 11.5105H41.3726L40.4997 13.6229H36.1291L40.5218 4.86502H39.568L41.4755 1.2505ZM42.5984 8.56266H43.96L43.9006 5.45426L42.5984 8.56266Z" fill="#005FAF"/>
<path fill-rule="evenodd" clip-rule="evenodd" d="M25.1858 1.25061H20.1597L18.2611 4.97347H19.1476L16.9399 13.6231H22.7967C24.931 13.6413 26.48 12.3933 27.1279 10.9534C27.4518 10.2336 27.5516 9.46346 27.3842 8.77812C27.2237 8.12083 26.8179 7.54415 26.1346 7.16813C27.6093 6.45541 28.4559 5.00574 28.408 3.71631C28.3836 3.05662 28.1247 2.43844 27.5954 1.98575C27.0665 1.53344 26.2727 1.25061 25.1858 1.25061ZM22.7972 10.4226L22.8006 10.3708C23.3172 10.4052 23.8236 10.0153 24.0022 9.57519C24.0907 9.35712 24.0959 9.13369 23.9888 8.94705C23.8822 8.76108 23.6576 8.60021 23.2624 8.52022H21.9318L21.4178 10.3707H22.7972V10.4226ZM22.4994 6.20868L22.8392 4.61151H24.1661C24.4843 4.69083 24.642 4.83351 24.702 4.99143C24.7632 5.15253 24.729 5.3455 24.6293 5.53528C24.53 5.72428 24.3693 5.90259 24.1918 6.02888C24.0131 6.15604 23.8252 6.22519 23.6712 6.20897L23.6685 6.20868H22.4994Z" fill="#005FAF"/>
</g>
<defs>
<clipPath id="clip0">
<rect width="48" height="16" fill="white"/>
</clipPath>
</defs>
</svg>
