<svg width="48" height="16" viewBox="0 0 48 16" fill="none" xmlns="http://www.w3.org/2000/svg">
<path d="M21.7393 12.8465H18.965L20.6989 2.19041H23.4736L21.7393 12.8465ZM16.631 2.19041L13.9861 9.51971L13.6732 7.94145L13.6735 7.94203L12.7399 3.14987C12.7399 3.14987 12.627 2.19041 11.4239 2.19041H7.05131L7 2.37084C7 2.37084 8.33714 2.64904 9.90203 3.58883L12.3124 12.8468H15.203L19.6169 2.19041H16.631ZM38.4526 12.8465H41L38.779 2.19013H36.5488C35.5189 2.19013 35.2681 2.98425 35.2681 2.98425L31.1304 12.8465H34.0224L34.6008 11.2636H38.1276L38.4526 12.8465ZM35.3998 9.07707L36.8575 5.0893L37.6776 9.07707H35.3998ZM31.3473 4.75295L31.7432 2.46462C31.7432 2.46462 30.5215 2 29.248 2C27.8712 2 24.6017 2.60173 24.6017 5.5277C24.6017 8.28066 28.439 8.31486 28.439 9.7609C28.439 11.2069 24.9971 10.9478 23.8612 10.0359L23.4488 12.4286C23.4488 12.4286 24.6876 13.0304 26.5802 13.0304C28.4735 13.0304 31.3296 12.0501 31.3296 9.38208C31.3296 6.61144 27.4579 6.35347 27.4579 5.14888C27.4581 3.944 30.1601 4.09878 31.3473 4.75295Z" fill="#2566AF"/>
<path d="M13.6735 7.94168L12.7399 3.14952C12.7399 3.14952 12.627 2.19006 11.4239 2.19006H7.05131L7 2.3705C7 2.3705 9.10163 2.80605 11.1175 4.43792C13.0449 5.99768 13.6735 7.94168 13.6735 7.94168Z" fill="#E6A540"/>
</svg>
