<svg width="64" height="22" viewBox="0 0 64 22" fill="none" xmlns="http://www.w3.org/2000/svg">
<path d="M32.1804 21.989C30.9713 21.989 29.9896 21.1104 29.9772 20.0221C29.9772 20.0221 29.9772 20.0221 29.9772 20.0205C29.9772 20.0189 29.9772 20.0173 29.9772 20.0158C29.9772 20.0142 29.9772 20.0142 29.9772 20.0126C29.9772 20.011 29.9772 20.0094 29.9772 20.0062C29.9772 20.0046 29.9772 20.003 29.9772 20.003C29.9772 19.9633 29.9455 15.7245 28.2076 11.608C26.0715 6.54461 22.3648 3.97717 17.1918 3.97717C11.9888 3.97717 8.26983 6.57321 6.13892 11.6954C4.42573 15.8135 4.40635 19.9633 4.40635 20.0046C4.40635 21.1009 3.41932 21.9906 2.20317 21.9906C0.987021 21.9906 0 21.1009 0 20.0046C0 19.806 0.0229144 15.0858 2.01458 10.3005C4.81702 3.56568 10.0659 0.00525333 17.1936 0.00525333C24.1626 0.00525333 29.3357 3.40998 32.1822 9.85878C32.1927 9.83494 32.2033 9.81112 32.2139 9.78728C32.2192 9.77457 32.2245 9.76186 32.2315 9.74915C35.0868 3.37185 40.2405 0.00525333 47.1708 0.00525333H59.5984C60.2118 -0.0217557 61.8615 0.0163748 62.8538 1.09515C63.2892 1.5686 64.6164 3.00961 63.6629 5.02257L63.6117 5.1322C61.606 9.43616 58.0351 10.8788 56.8612 11.3522C52.6223 13.0649 48.6936 13.0077 47.4017 12.9871C47.3083 12.9855 47.2307 12.9839 47.1708 12.9839H35.635C34.4118 16.6174 34.3853 19.9681 34.3853 20.0062C34.3853 20.0062 34.3853 20.0062 34.3853 20.0078C34.3818 21.1025 33.3966 21.989 32.1804 21.989ZM37.5279 9.01197H47.169C47.2501 9.01197 47.3523 9.01355 47.4739 9.01514C48.6337 9.03103 51.7128 9.0787 55.0581 7.72666C57.8095 6.61452 58.8723 4.95267 59.364 3.97717H47.169C42.9707 3.97558 39.7399 5.66761 37.5279 9.01197Z" fill="#2F8D03"/>
</svg>
